<?xml version="1.0" encoding="utf-8"?>
<svg width="30px" height="30px" viewBox="0 0 30 30" version="1.1" xmlns:xlink="http://www.w3.org/1999/xlink" xmlns="http://www.w3.org/2000/svg">
  <defs>
    <path d="M30 0L30 0L30 30L0 30L0 0L30 0Z" id="path_1" />
    <clipPath id="clip_1">
      <use xlink:href="#path_1" clip-rule="evenodd" fill-rule="evenodd" />
    </clipPath>
  </defs>
  <g id="Github">
    <path d="M30 0L30 0L30 30L0 30L0 0L30 0Z" id="Github" fill="none" stroke="none" />
    <path d="M15 3.75C8.7854 3.75 3.75 8.7854 3.75 15C3.75 19.9695 6.97266 24.1882 11.4441 25.6751C12.0081 25.7776 12.2131 25.4334 12.2131 25.1331C12.2131 24.8657 12.2021 24.1589 12.1985 23.2214C9.06738 23.8989 8.4082 21.7126 8.4082 21.7126C7.89551 20.4126 7.15942 20.0647 7.15942 20.0647C6.1377 19.3689 7.23633 19.3835 7.23633 19.3835C8.36426 19.4641 8.95752 20.5408 8.95752 20.5408C9.96094 22.262 11.5906 21.7639 12.2314 21.4783C12.334 20.7495 12.627 20.2551 12.9456 19.9731C10.448 19.6912 7.82227 18.7244 7.82227 14.4141C7.82227 13.1836 8.26172 12.1802 8.97949 11.3928C8.86597 11.1108 8.47778 9.9646 9.08936 8.41553C9.08936 8.41553 10.0342 8.11523 12.1838 9.56909C13.0811 9.32007 14.0442 9.19556 15 9.1919C15.9558 9.19556 16.9189 9.32007 17.8162 9.56909C19.9658 8.11523 20.907 8.41553 20.907 8.41553C21.5222 9.9646 21.1377 11.1108 21.0205 11.3928C21.7419 12.1802 22.1741 13.1836 22.1741 14.4141C22.1741 18.7354 19.5447 19.6838 17.0398 19.9658C17.4426 20.3101 17.8015 20.9985 17.8015 22.0459C17.8015 23.551 17.7905 24.7632 17.7905 25.1331C17.7905 25.4334 17.9919 25.7849 18.5632 25.6751C23.031 24.1846 26.25 19.9695 26.25 15C26.25 8.7854 21.2146 3.75 15 3.75L15 3.75Z" id="Shape" fill="#FFFFFF" fill-rule="evenodd" stroke="none" clip-path="url(#clip_1)" />
  </g>
</svg>