<?xml version="1.0" encoding="utf-8"?>
<svg width="30px" height="30px" viewBox="0 0 30 30" version="1.1" xmlns:xlink="http://www.w3.org/1999/xlink" xmlns="http://www.w3.org/2000/svg">
  <defs>
    <path d="M30 0L30 0L30 30L0 30L0 0L30 0Z" id="path_1" />
    <clipPath id="clip_1">
      <use xlink:href="#path_1" clip-rule="evenodd" fill-rule="evenodd" />
    </clipPath>
  </defs>
  <g id="Instagram">
    <path d="M30 0L30 0L30 30L0 30L0 0L30 0Z" id="Instagram" fill="none" stroke="none" />
    <path d="M10.1157 3.28125C6.34738 3.28125 3.28125 6.34919 3.28125 10.1184L3.28125 19.8834C3.28125 23.6522 6.34919 26.7188 10.1184 26.7188L19.8834 26.7188C23.6522 26.7188 26.7188 23.6508 26.7188 19.8816L26.7188 10.1157C26.7188 6.34738 23.6508 3.28125 19.8816 3.28125L10.1157 3.28125L10.1157 3.28125ZM22.0313 7.03125C22.5487 7.03125 22.9688 7.45125 22.9688 7.96875C22.9688 8.48625 22.5487 8.90625 22.0313 8.90625C21.5138 8.90625 21.0938 8.48625 21.0938 7.96875C21.0938 7.45125 21.5138 7.03125 22.0313 7.03125L22.0313 7.03125ZM15 8.90625C18.3609 8.90625 21.0938 11.6391 21.0938 15C21.0938 18.3609 18.3605 21.0938 15 21.0938C11.6391 21.0938 8.90625 18.3605 8.90625 15C8.90625 11.6395 11.6391 8.90625 15 8.90625L15 8.90625ZM15 10.7813C12.6698 10.7813 10.7813 12.6698 10.7813 15C10.7813 17.3302 12.6698 19.2188 15 19.2188C17.3302 19.2188 19.2188 17.3302 19.2188 15C19.2188 12.6698 17.3302 10.7813 15 10.7813L15 10.7813Z" id="Shape" fill="#FFFFFF" fill-opacity="0.8980392" fill-rule="evenodd" stroke="none" clip-path="url(#clip_1)" />
  </g>
</svg>