<?xml version="1.0" encoding="UTF-8"?>
<svg xmlns="http://www.w3.org/2000/svg" xmlns:xlink="http://www.w3.org/1999/xlink" width="64pt" height="64pt" viewBox="0 0 64 64" version="1.1">
<g id="surface1">
<path style=" stroke:none;fill-rule:evenodd;fill:rgb(24.313725%,33.333333%,42.352941%);fill-opacity:1;" d="M 48.144531 15.769531 C 48.101562 15.839844 48.09375 18.097656 48.136719 18.140625 C 48.21875 18.222656 52.820312 18.183594 52.894531 18.101562 C 52.949219 18.039062 52.960938 17.707031 52.933594 16.871094 L 52.894531 15.722656 L 50.539062 15.71875 C 49.214844 15.714844 48.164062 15.738281 48.144531 15.769531 M 33.046875 17.847656 L 32.894531 18 L 32.894531 22.25 L 33.058594 22.324219 C 33.304688 22.4375 37.246094 22.429688 37.398438 22.316406 C 37.574219 22.191406 37.5625 18.011719 37.386719 17.839844 C 37.285156 17.738281 37.085938 17.726562 35.238281 17.710938 L 33.203125 17.695312 L 33.046875 17.847656 M 41.367188 19.34375 C 41.351562 19.367188 41.332031 24.699219 41.324219 31.191406 L 41.3125 42.996094 L 41.15625 43.164062 L 41 43.328125 L 39.539062 43.328125 C 37.972656 43.328125 37.820312 43.300781 37.605469 42.992188 C 37.515625 42.867188 37.503906 41.898438 37.503906 33.785156 C 37.503906 26.140625 37.488281 24.707031 37.414062 24.644531 C 37.34375 24.585938 26.65625 24.539062 21.269531 24.574219 C 20.90625 24.578125 20.929688 24.136719 20.929688 32.03125 L 20.929688 39.289062 L 21.070312 39.386719 C 21.195312 39.476562 21.84375 39.488281 26.773438 39.488281 C 32.738281 39.488281 32.613281 39.480469 32.816406 39.804688 C 32.925781 39.984375 32.9375 42.816406 32.828125 42.992188 C 32.605469 43.347656 33.171875 43.328125 22.394531 43.328125 C 11.636719 43.328125 12.253906 43.347656 12.003906 42.992188 C 11.910156 42.863281 11.902344 42.335938 11.90625 38.023438 C 11.910156 35.023438 11.890625 33.175781 11.851562 33.136719 C 11.816406 33.101562 10.925781 33.074219 9.648438 33.074219 C 7.359375 33.070312 7.183594 33.09375 7.257812 33.367188 C 7.277344 33.441406 7.292969 36.730469 7.296875 40.679688 L 7.296875 47.851562 L 7.460938 47.925781 C 7.679688 48.027344 45.832031 48.035156 46.019531 47.933594 C 46.203125 47.835938 46.214844 19.332031 46.03125 19.324219 C 45.304688 19.292969 41.386719 19.308594 41.367188 19.34375 M 48.152344 19.339844 C 48.101562 19.425781 48.125 47.894531 48.179688 47.949219 C 48.207031 47.976562 49.28125 47.992188 50.5625 47.984375 L 52.894531 47.96875 L 52.929688 33.695312 C 52.945312 25.847656 52.941406 19.398438 52.917969 19.367188 C 52.867188 19.300781 48.191406 19.273438 48.152344 19.339844 M 32.5 29.253906 C 32.898438 29.390625 32.894531 29.382812 32.894531 32.035156 L 32.894531 34.441406 L 32.707031 34.628906 L 32.519531 34.820312 L 29.179688 34.800781 L 25.84375 34.785156 L 25.722656 34.632812 C 25.605469 34.488281 25.601562 34.347656 25.601562 32.058594 C 25.601562 29.421875 25.609375 29.351562 25.945312 29.253906 C 26.238281 29.167969 32.253906 29.167969 32.5 29.253906 "/>
<path style=" stroke:none;fill-rule:evenodd;fill:rgb(95.686275%,95.686275%,98.431373%);fill-opacity:1;" d="M 0 32 L 0 64 L 64 64 L 64 0 L 0 0 L 0 32 M 53.136719 15.457031 C 53.269531 15.546875 53.378906 15.667969 53.382812 15.730469 C 53.453125 16.992188 53.382812 18.261719 53.234375 18.410156 L 53.074219 18.570312 L 50.558594 18.570312 C 48.207031 18.574219 48.035156 18.566406 47.957031 18.457031 C 47.824219 18.277344 47.835938 15.632812 47.972656 15.4375 L 48.070312 15.296875 L 52.898438 15.296875 L 53.136719 15.457031 M 37.914062 17.414062 L 38.085938 17.546875 L 38.046875 22.601562 L 37.867188 22.757812 L 37.6875 22.910156 L 35.246094 22.910156 C 33.402344 22.910156 32.761719 22.890625 32.640625 22.828125 C 32.335938 22.675781 32.3125 22.449219 32.332031 19.886719 L 32.351562 17.527344 L 32.511719 17.40625 C 32.773438 17.207031 37.660156 17.214844 37.914062 17.414062 M 46.421875 19.203125 L 46.59375 19.335938 L 46.59375 47.90625 L 46.457031 48.160156 C 46.382812 48.300781 46.289062 48.4375 46.246094 48.464844 C 46.109375 48.554688 7.21875 48.519531 7.039062 48.429688 C 6.710938 48.261719 6.71875 48.414062 6.734375 40.402344 L 6.753906 32.949219 L 6.929688 32.792969 L 7.109375 32.640625 L 9.554688 32.640625 C 10.898438 32.640625 12.066406 32.660156 12.148438 32.679688 C 12.484375 32.773438 12.480469 32.703125 12.480469 37.816406 C 12.480469 41.277344 12.5 42.597656 12.554688 42.71875 L 12.628906 42.878906 L 32.199219 42.878906 L 32.273438 42.699219 C 32.332031 42.566406 32.34375 42.152344 32.320312 41.242188 L 32.289062 39.96875 L 26.488281 39.9375 C 21.703125 39.910156 20.671875 39.886719 20.585938 39.816406 C 20.4375 39.691406 20.421875 24.425781 20.570312 24.21875 C 20.664062 24.09375 36.726562 23.980469 37.554688 24.097656 C 38.136719 24.179688 38.078125 23.179688 38.078125 33.46875 C 38.078125 40.226562 38.097656 42.59375 38.152344 42.71875 L 38.226562 42.878906 L 40.746094 42.878906 L 40.820312 42.71875 C 40.878906 42.59375 40.894531 39.609375 40.894531 30.914062 L 40.894531 19.269531 L 41.039062 19.171875 C 41.289062 18.996094 46.195312 19.023438 46.421875 19.203125 M 53.242188 19.183594 L 53.378906 19.296875 L 53.378906 48.074219 L 53.246094 48.261719 C 53.058594 48.519531 53.101562 48.519531 50.433594 48.496094 L 48.035156 48.480469 L 47.953125 48.320312 C 47.839844 48.089844 47.832031 19.265625 47.949219 19.148438 C 48.089844 19.007812 53.070312 19.042969 53.242188 19.183594 M 26.273438 29.84375 L 26.113281 29.960938 L 26.113281 34.097656 L 26.257812 34.191406 C 26.453125 34.320312 32.144531 34.34375 32.25 34.214844 C 32.332031 34.117188 32.351562 29.996094 32.273438 29.855469 C 32.179688 29.6875 26.5 29.679688 26.273438 29.84375 "/>
<path style=" stroke:none;fill-rule:evenodd;fill:rgb(80%,83.137255%,86.27451%);fill-opacity:1;" d="M 47.972656 15.4375 C 47.835938 15.632812 47.824219 18.277344 47.957031 18.457031 C 48.035156 18.566406 48.207031 18.574219 50.558594 18.570312 L 53.074219 18.570312 L 53.234375 18.410156 C 53.382812 18.261719 53.453125 16.992188 53.382812 15.730469 C 53.378906 15.667969 53.269531 15.546875 53.136719 15.457031 L 52.898438 15.296875 L 48.070312 15.296875 L 47.972656 15.4375 M 53.027344 15.644531 C 53.261719 15.882812 53.273438 18.003906 53.039062 18.273438 L 52.894531 18.445312 L 50.527344 18.441406 C 48.179688 18.4375 48.160156 18.4375 48.046875 18.300781 C 47.890625 18.105469 47.878906 15.855469 48.035156 15.628906 L 48.136719 15.488281 L 52.871094 15.488281 L 53.027344 15.644531 M 32.511719 17.40625 L 32.351562 17.527344 L 32.332031 19.886719 C 32.3125 22.449219 32.335938 22.675781 32.640625 22.828125 C 32.761719 22.890625 33.402344 22.910156 35.246094 22.910156 L 37.6875 22.910156 L 37.867188 22.757812 L 38.046875 22.601562 L 38.085938 17.546875 L 37.914062 17.414062 C 37.660156 17.214844 32.773438 17.207031 32.511719 17.40625 M 37.558594 17.476562 C 37.863281 17.585938 37.886719 17.777344 37.886719 20.128906 C 37.886719 22.445312 37.890625 22.425781 37.503906 22.625 C 37.226562 22.765625 33.171875 22.765625 32.894531 22.625 C 32.582031 22.460938 32.574219 22.421875 32.574219 20.019531 C 32.574219 17.582031 32.585938 17.515625 32.914062 17.453125 C 33.246094 17.386719 37.363281 17.410156 37.558594 17.476562 M 41.039062 19.171875 L 40.894531 19.269531 L 40.894531 30.914062 C 40.894531 39.609375 40.878906 42.59375 40.820312 42.71875 L 40.746094 42.878906 L 38.226562 42.878906 L 38.152344 42.71875 C 38.097656 42.59375 38.078125 40.226562 38.078125 33.46875 C 38.078125 23.179688 38.136719 24.179688 37.554688 24.097656 C 36.726562 23.980469 20.664062 24.09375 20.570312 24.21875 C 20.421875 24.425781 20.4375 39.691406 20.585938 39.816406 C 20.671875 39.886719 21.703125 39.910156 26.488281 39.9375 L 32.289062 39.96875 L 32.320312 41.242188 C 32.34375 42.152344 32.332031 42.566406 32.273438 42.699219 L 32.199219 42.878906 L 12.628906 42.878906 L 12.554688 42.71875 C 12.5 42.597656 12.480469 41.277344 12.480469 37.816406 C 12.480469 32.703125 12.484375 32.773438 12.148438 32.679688 C 12.066406 32.660156 10.898438 32.640625 9.554688 32.640625 L 7.109375 32.640625 L 6.929688 32.792969 L 6.753906 32.949219 L 6.734375 40.402344 C 6.71875 48.414062 6.710938 48.261719 7.039062 48.429688 C 7.21875 48.519531 46.109375 48.554688 46.246094 48.464844 C 46.289062 48.4375 46.382812 48.300781 46.457031 48.160156 L 46.59375 47.90625 L 46.59375 19.335938 L 46.421875 19.203125 C 46.195312 19.023438 41.289062 18.996094 41.039062 19.171875 M 47.949219 19.148438 C 47.832031 19.265625 47.839844 48.089844 47.953125 48.320312 L 48.035156 48.480469 L 50.433594 48.496094 C 53.101562 48.519531 53.058594 48.519531 53.246094 48.261719 L 53.378906 48.074219 L 53.378906 19.296875 L 53.242188 19.183594 C 53.070312 19.042969 48.089844 19.007812 47.949219 19.148438 M 46.210938 19.203125 C 46.335938 19.265625 46.335938 19.496094 46.335938 33.632812 L 46.335938 47.992188 L 46.183594 48.15625 L 46.035156 48.320312 L 26.757812 48.320312 C 5.933594 48.320312 7.222656 48.339844 7.042969 48.007812 C 6.941406 47.816406 6.949219 33.167969 7.046875 33.046875 C 7.265625 32.78125 7.398438 32.769531 9.597656 32.769531 C 11.851562 32.769531 12.066406 32.792969 12.21875 33.082031 C 12.269531 33.175781 12.289062 34.621094 12.285156 37.988281 C 12.28125 42.402344 12.289062 42.777344 12.390625 42.886719 C 12.542969 43.054688 32.195312 43.074219 32.414062 42.90625 C 32.539062 42.816406 32.542969 42.734375 32.542969 41.390625 L 32.542969 39.972656 L 32.382812 39.890625 C 32.257812 39.828125 31.007812 39.808594 26.582031 39.808594 C 21.125 39.808594 20.9375 39.804688 20.792969 39.6875 L 20.640625 39.5625 L 20.621094 32.246094 C 20.601562 24.097656 20.589844 24.410156 20.898438 24.28125 C 21.183594 24.164062 37.160156 24.144531 37.496094 24.261719 C 37.914062 24.410156 37.890625 23.785156 37.886719 33.734375 C 37.886719 42.113281 37.890625 42.777344 37.992188 42.890625 C 38.132812 43.042969 40.777344 43.070312 40.976562 42.917969 C 41.085938 42.835938 41.089844 42.25 41.089844 31.085938 L 41.085938 19.335938 L 41.230469 19.234375 C 41.402344 19.113281 45.988281 19.082031 46.210938 19.203125 M 53.050781 19.246094 L 53.1875 19.359375 L 53.167969 33.675781 L 53.152344 47.988281 L 52.996094 48.15625 L 52.839844 48.320312 L 48.140625 48.320312 L 48.039062 48.101562 C 47.882812 47.773438 47.878906 19.394531 48.035156 19.238281 C 48.199219 19.074219 52.851562 19.085938 53.050781 19.246094 M 26.195312 29.570312 C 25.925781 29.675781 25.914062 29.78125 25.933594 32.101562 C 25.953125 34.234375 25.957031 34.316406 26.078125 34.386719 C 26.171875 34.441406 27.074219 34.472656 29.214844 34.496094 L 32.222656 34.527344 L 32.382812 34.390625 L 32.542969 34.25 L 32.5625 32.214844 C 32.585938 30.019531 32.570312 29.816406 32.378906 29.628906 C 32.246094 29.492188 26.519531 29.4375 26.195312 29.570312 M 32.273438 29.855469 C 32.351562 29.996094 32.332031 34.117188 32.25 34.214844 C 32.144531 34.34375 26.453125 34.320312 26.257812 34.191406 L 26.113281 34.097656 L 26.113281 29.960938 L 26.273438 29.84375 C 26.5 29.679688 32.179688 29.6875 32.273438 29.855469 "/>
<path style=" stroke:none;fill-rule:evenodd;fill:rgb(51.764706%,54.901961%,61.176471%);fill-opacity:1;" d="M 48.066406 15.738281 C 47.96875 15.925781 47.980469 18.058594 48.078125 18.195312 C 48.152344 18.289062 48.394531 18.300781 50.527344 18.308594 L 52.894531 18.3125 L 52.988281 18.171875 C 53.097656 18.011719 53.09375 15.929688 52.984375 15.726562 C 52.886719 15.546875 48.164062 15.554688 48.066406 15.738281 M 52.933594 16.871094 C 52.960938 17.707031 52.949219 18.039062 52.894531 18.101562 C 52.820312 18.183594 48.21875 18.222656 48.136719 18.140625 C 48.09375 18.097656 48.101562 15.839844 48.144531 15.769531 C 48.164062 15.738281 49.214844 15.714844 50.539062 15.71875 L 52.894531 15.722656 L 52.933594 16.871094 M 32.886719 17.660156 L 32.734375 17.78125 L 32.71875 19.945312 C 32.695312 22.363281 32.695312 22.355469 32.945312 22.457031 C 33.253906 22.585938 37.46875 22.527344 37.605469 22.390625 C 37.703125 22.292969 37.726562 21.332031 37.699219 18.011719 C 37.695312 17.535156 37.699219 17.535156 35.238281 17.535156 C 33.167969 17.535156 33.027344 17.542969 32.886719 17.660156 M 37.386719 17.839844 C 37.5625 18.011719 37.574219 22.191406 37.398438 22.316406 C 37.246094 22.429688 33.304688 22.4375 33.058594 22.324219 L 32.894531 22.25 L 32.894531 18 L 33.046875 17.847656 L 33.203125 17.695312 L 35.238281 17.710938 C 37.085938 17.726562 37.285156 17.738281 37.386719 17.839844 M 41.324219 19.28125 C 41.222656 19.355469 41.214844 20.167969 41.199219 31.148438 C 41.1875 40.710938 41.167969 42.953125 41.101562 43.019531 C 40.988281 43.132812 38.269531 43.175781 38.011719 43.070312 C 37.6875 42.9375 37.695312 43.171875 37.695312 33.652344 C 37.699219 23.734375 37.730469 24.429688 37.289062 24.351562 C 37.179688 24.332031 33.464844 24.324219 29.035156 24.332031 L 20.980469 24.351562 L 20.859375 24.503906 C 20.738281 24.648438 20.734375 24.863281 20.734375 32.035156 L 20.734375 39.417969 L 20.875 39.550781 C 21.015625 39.679688 21.070312 39.679688 26.652344 39.679688 C 32.15625 39.679688 32.292969 39.683594 32.496094 39.808594 L 32.703125 39.933594 L 32.703125 41.398438 C 32.703125 42.804688 32.699219 42.863281 32.570312 42.980469 C 32.40625 43.128906 12.753906 43.210938 12.402344 43.066406 C 12.089844 42.9375 12.089844 42.914062 12.101562 37.867188 L 12.109375 33.140625 L 11.972656 33.046875 C 11.734375 32.878906 7.480469 32.890625 7.261719 33.058594 L 7.097656 33.183594 L 7.101562 40.492188 C 7.105469 44.511719 7.121094 47.84375 7.140625 47.890625 C 7.230469 48.128906 7.019531 48.128906 26.785156 48.128906 L 46.074219 48.128906 L 46.171875 47.984375 C 46.347656 47.738281 46.320312 19.359375 46.148438 19.265625 C 45.957031 19.164062 41.464844 19.175781 41.324219 19.28125 M 48.078125 19.277344 C 47.972656 19.378906 47.964844 47.8125 48.066406 48.003906 C 48.167969 48.191406 52.78125 48.199219 52.949219 48.011719 C 53.117188 47.828125 53.113281 19.402344 52.949219 19.28125 C 52.792969 19.167969 48.1875 19.164062 48.078125 19.277344 M 46.03125 19.324219 C 46.214844 19.332031 46.203125 47.835938 46.019531 47.933594 C 45.832031 48.035156 7.679688 48.027344 7.460938 47.925781 L 7.296875 47.851562 L 7.296875 40.679688 C 7.292969 36.730469 7.277344 33.441406 7.257812 33.367188 C 7.183594 33.09375 7.359375 33.070312 9.648438 33.074219 C 10.925781 33.074219 11.816406 33.101562 11.851562 33.136719 C 11.890625 33.175781 11.910156 35.023438 11.90625 38.023438 C 11.902344 42.335938 11.910156 42.863281 12.003906 42.992188 C 12.253906 43.347656 11.636719 43.328125 22.394531 43.328125 C 33.171875 43.328125 32.605469 43.347656 32.828125 42.992188 C 32.9375 42.816406 32.925781 39.984375 32.816406 39.804688 C 32.613281 39.480469 32.738281 39.488281 26.773438 39.488281 C 21.84375 39.488281 21.195312 39.476562 21.070312 39.386719 L 20.929688 39.289062 L 20.929688 32.03125 C 20.929688 24.136719 20.90625 24.578125 21.269531 24.574219 C 26.65625 24.539062 37.34375 24.585938 37.414062 24.644531 C 37.488281 24.707031 37.503906 26.140625 37.503906 33.785156 C 37.503906 41.898438 37.515625 42.867188 37.605469 42.992188 C 37.820312 43.300781 37.972656 43.328125 39.539062 43.328125 L 41 43.328125 L 41.15625 43.164062 L 41.3125 42.996094 L 41.324219 31.191406 C 41.332031 24.699219 41.351562 19.367188 41.367188 19.34375 C 41.386719 19.308594 45.304688 19.292969 46.03125 19.324219 M 52.917969 19.367188 C 52.941406 19.398438 52.945312 25.847656 52.929688 33.695312 L 52.894531 47.96875 L 50.5625 47.984375 C 49.28125 47.992188 48.207031 47.976562 48.179688 47.949219 C 48.125 47.894531 48.101562 19.425781 48.152344 19.339844 C 48.191406 19.273438 52.867188 19.300781 52.917969 19.367188 M 25.945312 29.253906 C 25.609375 29.351562 25.601562 29.421875 25.601562 32.058594 C 25.601562 34.347656 25.605469 34.488281 25.722656 34.632812 L 25.84375 34.785156 L 29.179688 34.800781 L 32.519531 34.820312 L 32.707031 34.628906 L 32.894531 34.441406 L 32.894531 32.035156 C 32.894531 29.382812 32.898438 29.390625 32.5 29.253906 C 32.253906 29.167969 26.238281 29.167969 25.945312 29.253906 M 32.40625 29.445312 C 32.6875 29.574219 32.703125 29.703125 32.703125 32.007812 C 32.703125 34.386719 32.691406 34.46875 32.335938 34.617188 C 32.203125 34.671875 31.34375 34.6875 29.128906 34.675781 L 26.101562 34.65625 L 25.914062 34.445312 L 25.726562 34.238281 L 25.726562 29.75 L 26.101562 29.375 L 29.175781 29.375 C 31.292969 29.375 32.296875 29.398438 32.40625 29.445312 "/>
<path style=" stroke:none;fill-rule:evenodd;fill:rgb(60%,66.27451%,70.588235%);fill-opacity:1;" d="M 48.035156 15.628906 C 47.878906 15.855469 47.890625 18.105469 48.046875 18.300781 C 48.160156 18.4375 48.179688 18.4375 50.527344 18.441406 L 52.894531 18.445312 L 53.039062 18.273438 C 53.273438 18.003906 53.261719 15.882812 53.027344 15.644531 L 52.871094 15.488281 L 48.136719 15.488281 L 48.035156 15.628906 M 52.984375 15.726562 C 53.09375 15.929688 53.097656 18.011719 52.988281 18.171875 L 52.894531 18.3125 L 50.527344 18.308594 C 48.394531 18.300781 48.152344 18.289062 48.078125 18.195312 C 47.980469 18.058594 47.96875 15.925781 48.066406 15.738281 C 48.164062 15.554688 52.886719 15.546875 52.984375 15.726562 M 32.914062 17.453125 C 32.585938 17.515625 32.574219 17.582031 32.574219 20.019531 C 32.574219 22.421875 32.582031 22.460938 32.894531 22.625 C 33.171875 22.765625 37.226562 22.765625 37.503906 22.625 C 37.890625 22.425781 37.886719 22.445312 37.886719 20.128906 C 37.886719 17.777344 37.863281 17.585938 37.558594 17.476562 C 37.363281 17.410156 33.246094 17.386719 32.914062 17.453125 M 37.566406 17.675781 C 37.636719 17.753906 37.695312 17.90625 37.699219 18.011719 C 37.726562 21.332031 37.703125 22.292969 37.605469 22.390625 C 37.46875 22.527344 33.253906 22.585938 32.945312 22.457031 C 32.695312 22.355469 32.695312 22.363281 32.71875 19.945312 L 32.734375 17.78125 L 32.886719 17.660156 C 33.140625 17.453125 37.375 17.472656 37.566406 17.675781 M 41.230469 19.234375 L 41.085938 19.335938 L 41.089844 31.085938 C 41.089844 42.25 41.085938 42.835938 40.976562 42.917969 C 40.777344 43.070312 38.132812 43.042969 37.992188 42.890625 C 37.890625 42.777344 37.886719 42.113281 37.886719 33.734375 C 37.890625 23.785156 37.914062 24.410156 37.496094 24.261719 C 37.160156 24.144531 21.183594 24.164062 20.898438 24.28125 C 20.589844 24.410156 20.601562 24.097656 20.621094 32.246094 L 20.640625 39.5625 L 20.792969 39.6875 C 20.9375 39.804688 21.125 39.808594 26.582031 39.808594 C 31.007812 39.808594 32.257812 39.828125 32.382812 39.890625 L 32.542969 39.972656 L 32.542969 41.390625 C 32.542969 42.734375 32.539062 42.816406 32.414062 42.90625 C 32.195312 43.074219 12.542969 43.054688 12.390625 42.886719 C 12.289062 42.777344 12.28125 42.402344 12.285156 37.988281 C 12.289062 34.621094 12.269531 33.175781 12.21875 33.082031 C 12.066406 32.792969 11.851562 32.769531 9.597656 32.769531 C 7.398438 32.769531 7.265625 32.78125 7.046875 33.046875 C 6.949219 33.167969 6.941406 47.816406 7.042969 48.007812 C 7.222656 48.339844 5.933594 48.320312 26.757812 48.320312 L 46.035156 48.320312 L 46.183594 48.15625 L 46.335938 47.992188 L 46.335938 33.632812 C 46.335938 19.496094 46.335938 19.265625 46.210938 19.203125 C 45.988281 19.082031 41.402344 19.113281 41.230469 19.234375 M 48.035156 19.238281 C 47.878906 19.394531 47.882812 47.773438 48.039062 48.101562 L 48.140625 48.320312 L 52.839844 48.320312 L 52.996094 48.15625 L 53.152344 47.988281 L 53.167969 33.675781 L 53.1875 19.359375 L 53.050781 19.246094 C 52.851562 19.085938 48.199219 19.074219 48.035156 19.238281 M 46.148438 19.265625 C 46.320312 19.359375 46.347656 47.738281 46.171875 47.984375 L 46.074219 48.128906 L 26.785156 48.128906 C 7.019531 48.128906 7.230469 48.128906 7.140625 47.890625 C 7.121094 47.84375 7.105469 44.511719 7.101562 40.492188 L 7.097656 33.183594 L 7.261719 33.058594 C 7.480469 32.890625 11.734375 32.878906 11.972656 33.046875 L 12.109375 33.140625 L 12.101562 37.867188 C 12.089844 42.914062 12.089844 42.9375 12.402344 43.066406 C 12.753906 43.210938 32.40625 43.128906 32.570312 42.980469 C 32.699219 42.863281 32.703125 42.804688 32.703125 41.398438 L 32.703125 39.933594 L 32.496094 39.808594 C 32.292969 39.683594 32.15625 39.679688 26.652344 39.679688 C 21.070312 39.679688 21.015625 39.679688 20.875 39.550781 L 20.734375 39.417969 L 20.734375 32.035156 C 20.734375 24.863281 20.738281 24.648438 20.859375 24.503906 L 20.980469 24.351562 L 29.035156 24.332031 C 33.464844 24.324219 37.179688 24.332031 37.289062 24.351562 C 37.730469 24.429688 37.699219 23.734375 37.695312 33.652344 C 37.695312 43.171875 37.6875 42.9375 38.011719 43.070312 C 38.269531 43.175781 40.988281 43.132812 41.101562 43.019531 C 41.167969 42.953125 41.1875 40.710938 41.199219 31.148438 C 41.214844 20.167969 41.222656 19.355469 41.324219 19.28125 C 41.464844 19.175781 45.957031 19.164062 46.148438 19.265625 M 52.949219 19.28125 C 53.113281 19.402344 53.117188 47.828125 52.949219 48.011719 C 52.78125 48.199219 48.167969 48.191406 48.066406 48.003906 C 47.964844 47.8125 47.972656 19.378906 48.078125 19.277344 C 48.1875 19.164062 52.792969 19.167969 52.949219 19.28125 M 25.914062 29.5625 L 25.726562 29.75 L 25.726562 34.238281 L 25.914062 34.445312 L 26.101562 34.65625 L 29.128906 34.675781 C 32.390625 34.695312 32.441406 34.691406 32.609375 34.363281 C 32.730469 34.132812 32.75 29.929688 32.632812 29.675781 C 32.5 29.382812 32.421875 29.375 29.175781 29.375 L 26.101562 29.375 L 25.914062 29.5625 M 32.378906 29.628906 C 32.570312 29.816406 32.585938 30.019531 32.5625 32.214844 L 32.542969 34.25 L 32.382812 34.390625 L 32.222656 34.527344 L 29.214844 34.496094 C 27.074219 34.472656 26.171875 34.441406 26.078125 34.386719 C 25.957031 34.316406 25.953125 34.234375 25.933594 32.101562 C 25.914062 29.78125 25.925781 29.675781 26.195312 29.570312 C 26.519531 29.4375 32.246094 29.492188 32.378906 29.628906 "/>
</g>
</svg>
