<svg width="738" height="202" viewBox="0 0 738 202" fill="none" xmlns="http://www.w3.org/2000/svg">
<g clip-path="url(#clip0_1_194)">
<mask id="mask0_1_194" style="mask-type:luminance" maskUnits="userSpaceOnUse" x="-1" y="0" width="739" height="201">
<path d="M737.178 0.299805H-0.00585938V200.865H737.178V0.299805Z" fill="white"/>
</mask>
<g mask="url(#mask0_1_194)">
<path d="M345.948 199.597C333.351 199.597 320.101 192.881 308.601 181.463C308.164 182.224 307.701 182.96 307.225 183.671C302.379 190.933 293.043 199.597 276.038 199.597C264.399 199.597 248.713 195.081 240.055 173.567C234.251 159.149 231.549 137.051 231.549 104.018C231.549 75.0379 234.892 51.931 241.482 35.3447C245.294 25.7418 250.299 18.1431 256.35 12.7581C263.454 6.44068 272.112 3.09801 281.378 3.09801C293.607 3.09801 304.098 8.61626 310.917 18.6378C311.957 20.1728 312.908 21.8029 313.764 23.5281C327.326 9.94188 341.121 3.09167 354.999 3.09167C373.279 3.09167 385.084 15.7202 385.084 35.2686C385.084 46.305 379.97 59.1174 369.879 73.3382C364.063 81.5328 356.826 89.9244 348.593 98.0242C363.72 120.871 377.649 149.261 377.649 167.179C377.649 175.844 374.402 183.963 368.496 190.039C362.515 196.198 354.504 199.591 345.935 199.591L345.948 199.597Z" fill="white"/>
<path d="M369.867 35.2693C369.867 25.9772 366.15 18.3151 355.006 18.3151C342.929 18.3151 325.049 26.9096 303.217 62.2069C303.914 58.0273 304.143 54.0757 304.143 50.3652C304.143 31.3178 296.246 18.3151 281.385 18.3151C258.855 18.3151 246.779 50.1306 246.779 104.013C246.779 167.187 256.762 184.369 276.044 184.369C292.301 184.369 300.66 173.218 301.593 144.657C313.207 169.971 332.019 184.369 345.954 184.369C355.012 184.369 362.446 176.935 362.446 167.18C362.446 152.782 347.813 121.893 328.537 95.8809C350.604 76.6051 369.879 51.7543 369.879 35.263L369.867 35.2693Z" fill="white"/>
<path d="M695.015 83.1239C672.151 83.1239 653.549 64.2412 653.549 41.0269C653.549 29.9206 657.78 19.6326 665.451 12.0593C673.142 4.47334 683.639 0.299805 695.015 0.299805C706.396 0.299805 717.069 4.44163 724.879 11.9578C732.811 19.5946 737.177 29.9967 737.177 41.2553C737.177 64.343 718.264 83.1239 695.015 83.1239Z" fill="white"/>
<path d="M695.016 67.9021C709.879 67.9021 721.954 55.8315 721.954 41.256C721.954 26.6802 710.578 15.5232 695.016 15.5232C679.458 15.5232 668.769 26.6802 668.769 41.0275C668.769 55.375 680.384 67.9021 695.016 67.9021Z" fill="white"/>
<path d="M691.999 200.862C677.025 200.862 664.762 193.416 657.486 179.906C651.558 168.888 648.67 153.627 648.67 133.261C648.67 112.894 651.569 97.6587 657.532 86.6412C664.935 72.9599 677.505 65.4249 692.924 65.4249C708.344 65.4249 719.501 72.0784 726.574 84.6623C732.54 95.2801 735.32 110.141 735.32 131.434C735.32 152.727 732.498 168.349 726.689 179.493C719.509 193.27 707.184 200.862 691.999 200.862Z" fill="white"/>
<path d="M692.924 80.6542C672.951 80.6542 663.894 98.4203 663.894 133.261C663.894 168.102 673.185 185.64 691.999 185.64C710.812 185.64 720.104 168.559 720.104 131.441C720.104 94.3228 711.047 80.6542 692.932 80.6542H692.924Z" fill="white"/>
<path d="M597.708 200.865C582.396 200.865 571.631 193.92 565.725 180.226C561.94 171.447 559.966 159.681 559.275 140.983C554.353 138.896 550.275 136.194 546.95 132.826C540.627 126.42 537.424 118.06 537.424 107.981C537.424 97.2809 540.496 88.5153 546.551 81.9314C549.838 78.3606 553.923 75.4998 558.887 73.3117C559.77 51.7905 566.578 33.7009 578.711 20.787C591.124 7.57497 608.831 0.299805 628.597 0.299805C642.753 0.299805 655.044 4.10548 664.139 11.2982C673.8 18.9413 679.121 29.743 679.121 41.7118C679.121 57.5816 670.782 70.1909 657.317 76.6225C665.706 82.0838 672.152 91.0459 672.152 105.932C672.152 119.328 667.514 129.61 658.369 136.505C653.047 140.513 646.405 143.272 637.616 145.036C636.468 161.248 634.019 172.57 629.96 180.885C623.567 193.958 612.418 200.865 597.708 200.865Z" fill="white"/>
<path d="M663.892 41.7125C663.892 27.3652 651.118 15.5232 628.588 15.5232C597.934 15.5232 574.01 36.4734 574.01 78.152V84.5264C559.147 87.4885 552.639 94.3198 552.639 107.982C552.639 119.824 559.143 126.655 574.236 129.617C574.701 173.801 580.51 185.643 597.692 185.643C614.873 185.643 621.846 173.116 623.006 131.672C647.624 129.624 656.916 122.792 656.916 105.94C656.916 90.9072 647.624 84.761 623.006 82.9406C622.771 74.7395 622.771 68.8217 622.545 64.4957C626.261 65.4091 631.138 66.0879 635.319 66.0879C652.969 66.0879 663.885 56.2945 663.885 41.719L663.892 41.7125Z" fill="white"/>
<path d="M418.638 199.597C398.105 199.597 379.287 190.927 365.65 175.184C352.565 160.082 345.353 139.588 345.353 117.49C345.353 95.3918 352.539 75.7036 365.586 61.4767C378.957 46.8947 397.801 38.8586 418.638 38.8586C439.475 38.8586 458.354 46.7807 471.65 61.1661C484.912 75.5197 491.923 94.9921 491.923 117.484C491.923 139.975 484.716 160.075 471.623 175.178C457.982 190.92 439.164 199.591 418.638 199.591V199.597Z" fill="white"/>
<path d="M418.639 54.082C384.494 54.082 360.576 80.0935 360.576 117.484C360.576 154.875 385.427 184.369 418.639 184.369C451.85 184.369 476.7 155.573 476.7 117.484C476.7 79.3958 452.78 54.082 418.639 54.082ZM416.089 131.654C408.89 131.654 403.55 125.153 403.55 117.256C403.55 110.057 408.89 104.247 416.089 104.247C423.288 104.247 428.399 110.05 428.399 117.256C428.399 125.153 423.058 131.654 416.089 131.654Z" fill="white"/>
<path d="M511.712 143.855C498.455 143.855 488.921 141.363 481.703 136.009C472.868 129.451 468.384 119.309 468.384 105.875C468.384 90.1383 475.456 81.4614 481.388 76.9516C489.094 71.091 499.395 68.3572 513.797 68.3572C528.203 68.3572 538.846 70.8944 546.621 76.3365C553.106 80.8778 560.839 89.8085 560.839 106.573C560.839 123.337 552.63 132.337 545.742 136.669C537.844 141.642 527.347 143.855 511.705 143.855H511.712Z" fill="white"/>
<path d="M513.797 83.5813C492.2 83.5813 483.607 90.7803 483.607 105.876C483.607 123.293 493.363 128.634 511.712 128.634C535.632 128.634 545.619 123.059 545.619 106.568C545.619 90.0762 535.636 83.5748 513.805 83.5748L513.797 83.5813Z" fill="white"/>
<path d="M96.2458 197.935C61.2019 197.935 32.6975 182.263 15.9906 153.803C1.19927 128.856 -0.00585938 101.836 -0.00585938 71.6443C-0.00585938 53.745 5.37915 38.1609 15.5594 26.5726C24.9149 15.9294 38.1713 9.03478 52.8928 7.15734C70.3672 4.94372 92.0914 4.75977 114.678 4.75977C151.434 4.75977 161.817 5.2101 176.279 6.65625C195.517 8.56544 211.704 15.7455 223.082 27.4225C234.639 39.2835 240.747 55.1214 240.747 73.2427V76.8837C240.747 107.805 220.076 133.683 191.267 140.717C189.117 145.792 186.453 150.84 183.301 155.813L183.218 155.94C173.07 171.626 149.214 197.942 103.521 197.942H96.2396L96.2458 197.935Z" fill="white"/>
<path d="M174.77 21.7977C161.114 20.434 151.555 19.9773 114.684 19.9773C91.0132 19.9773 70.9829 20.2056 54.8278 22.2543C33.4335 24.9881 15.2234 41.3715 15.2234 71.6456C15.2234 101.92 16.8154 125.362 29.1077 146.072C42.9922 169.743 66.2066 182.714 96.2526 182.714H103.534C140.404 182.714 160.435 163.14 170.45 147.664C174.776 140.833 177.96 134.008 180.009 127.177C206.185 124.9 225.531 103.277 225.531 76.8784V73.2378C225.531 44.7902 206.871 24.9881 174.776 21.7977H174.77Z" fill="white"/>
<path d="M683.057 58.6707H648.67V83.0335H683.057V58.6707Z" fill="white"/>
<path d="M668.769 41.0275C668.769 55.8315 680.384 67.9021 695.016 67.9021C709.648 67.9021 721.954 55.8315 721.954 41.256C721.954 26.6802 710.578 15.5232 695.016 15.5232C679.458 15.5232 668.769 26.6802 668.769 41.0275ZM663.893 133.264C663.893 168.562 673.185 185.643 691.998 185.643C710.812 185.643 720.103 168.562 720.103 131.444C720.103 94.3259 711.046 80.6573 692.931 80.6573C672.958 80.6573 663.901 98.4234 663.901 133.264M552.647 107.982C552.647 119.824 559.148 126.655 574.245 129.617C574.705 173.801 580.518 185.643 597.7 185.643C614.882 185.643 621.854 173.116 623.014 131.672C647.629 129.624 656.921 122.792 656.921 105.94C656.921 90.9072 647.629 84.761 623.014 82.9406C622.78 74.7395 622.78 68.8217 622.549 64.4957C626.266 65.4091 631.146 66.0879 635.323 66.0879C652.977 66.0879 663.893 56.2945 663.893 41.719C663.893 27.1432 651.119 15.5295 628.589 15.5295C597.934 15.5295 574.01 36.4798 574.01 78.1582V84.5329C559.148 87.4947 552.64 94.3259 552.64 107.988M483.606 105.876C483.606 123.293 493.362 128.634 511.711 128.634C535.631 128.634 545.617 123.059 545.617 106.567C545.617 90.0764 535.631 83.5749 513.803 83.5749C491.98 83.5749 483.613 90.774 483.613 105.87M403.541 117.255C403.541 110.056 408.881 104.246 416.08 104.246C423.279 104.246 428.394 110.05 428.394 117.255C428.394 125.152 423.053 131.653 416.08 131.653C409.108 131.653 403.541 125.152 403.541 117.255ZM360.575 117.49C360.575 155.578 385.426 184.374 418.637 184.374C451.849 184.374 476.698 155.578 476.698 117.49C476.698 79.4014 452.778 54.0872 418.637 54.0872C384.493 54.0872 360.575 80.099 360.575 117.49ZM281.379 18.314C258.849 18.314 246.773 50.1294 246.773 104.011C246.773 167.185 256.762 184.368 276.038 184.368C292.295 184.368 300.655 173.218 301.587 144.656C313.201 169.97 332.013 184.368 345.948 184.368C355.006 184.368 362.439 176.934 362.439 167.179C362.439 152.781 347.807 121.892 328.531 95.8798C350.598 76.6043 369.873 51.7532 369.873 35.2619C369.873 25.9698 366.156 18.3077 355.012 18.3077C342.936 18.3077 325.055 26.9022 303.223 62.1997C303.921 58.02 304.149 54.0684 304.149 50.3579C304.149 31.3104 296.253 18.3077 281.391 18.3077" fill="#202020"/>
<path d="M15.218 71.6456C15.218 41.3715 33.4281 24.9881 54.8222 22.2543C70.9838 20.2056 91.0144 19.9773 114.679 19.9773C151.55 19.9773 161.108 20.434 174.764 21.7977C206.859 24.9818 225.519 44.7841 225.519 73.2378V76.8784C225.519 103.283 206.174 124.906 179.997 127.177C177.948 134.008 174.764 140.833 170.439 147.664C160.423 163.14 140.393 182.714 103.522 182.714H96.2408C66.1951 182.714 42.9804 169.743 29.096 146.072C16.8037 125.362 15.2117 102.37 15.2117 71.6456" fill="#202020"/>
<path d="M32.285 71.8719C32.285 101.233 34.1054 120.121 43.6639 137.647C54.5861 157.905 74.3884 165.644 96.9243 165.644H103.977C133.567 165.644 147.907 151.303 155.874 138.788C159.743 132.414 163.156 125.361 164.976 116.481L166.34 110.791H174.535C192.745 110.791 208.449 96.0001 208.449 77.1048V73.6922C208.449 52.5266 195.25 41.3694 172.258 38.6421C159.287 37.5068 151.548 37.0501 114.672 37.0501C89.865 37.0501 72.1115 37.2784 58.6837 39.3272C39.7949 42.0609 32.2787 52.7547 32.2787 71.8719" fill="white"/>
<path d="M166.348 87.5747C166.348 90.3084 168.397 92.3572 172.037 92.3572C183.645 92.3572 190.019 85.7544 190.019 74.8322C190.019 63.91 183.645 57.0787 172.037 57.0787C168.397 57.0787 166.348 59.1275 166.348 61.8612V87.5812V87.5747Z" fill="#202020"/>
<path d="M54.5932 86.2052C54.5932 99.6327 62.1032 111.24 71.6617 120.348C78.036 126.495 88.0513 132.869 94.876 136.966C96.9248 138.102 98.9736 138.787 101.251 138.787C103.984 138.787 106.255 138.102 108.082 136.966C114.913 132.869 124.922 126.495 131.068 120.348C140.855 111.246 148.365 99.6392 148.365 86.2052C148.365 71.6358 137.443 58.6649 121.738 58.6649C112.408 58.6649 106.033 63.4473 101.251 70.0436C96.9248 63.4408 90.3285 58.6649 80.992 58.6649C65.0589 58.6649 54.587 71.6358 54.587 86.2052" fill="#FF5A16"/>
</g>
</g>
<defs>
<clipPath id="clip0_1_194">
<rect width="737.184" height="200.806" fill="white" transform="translate(-0.00585938 0.299805)"/>
</clipPath>
</defs>
</svg>
