<?xml version="1.0" encoding="utf-8"?>
<svg width="164.72852px" height="200px" viewBox="0 0 164.72852 200" version="1.1" xmlns:xlink="http://www.w3.org/1999/xlink" xmlns="http://www.w3.org/2000/svg">
  <path d="M86.5754 0C85.2755 0 83.9445 0.0688477 82.5696 0.168701C47.3557 2.96216 56.6982 40.2319 56.1732 52.6616C55.5233 61.7417 53.6736 68.9343 47.4244 77.8269C40.0317 86.582 29.683 100.743 24.7712 115.478C22.4653 122.408 21.353 129.545 22.3965 136.25C22.0716 136.507 21.7466 136.8 21.4529 137.35C19.3032 139.6 17.7034 142.368 15.9474 144.349C14.2914 146.005 11.9167 146.568 9.30457 147.674C6.7049 148.805 3.8053 149.917 2.11182 153.367C1.36188 154.935 0.968201 156.623 1.00568 158.385C1.00568 160.01 1.23694 161.703 1.46185 162.84C1.95557 166.159 2.43677 168.896 1.78687 170.914C-0.294128 176.57 -0.519104 180.444 0.911926 183.281C2.36798 186.081 5.36761 187.187 8.71716 188.3C15.4912 189.956 24.6337 189.431 31.864 193.274C39.5692 197.179 47.4182 198.873 53.6673 197.217C58.0229 196.242 61.735 193.343 63.7222 189.343C68.6028 189.312 73.9708 187.094 82.5384 186.543C88.3626 186.05 95.6554 188.787 104.017 188.199C104.242 189.343 104.535 189.855 104.992 190.999L104.992 191.03C108.241 197.504 114.265 200.435 120.714 199.948C127.12 199.429 133.956 195.492 139.487 189.049C144.761 182.7 153.516 180.026 159.309 176.551C162.209 174.883 164.552 172.645 164.715 169.421C164.909 166.103 163.059 162.653 158.791 157.966L158.791 157.147L158.759 157.116C157.328 155.46 156.678 152.661 155.928 149.411C155.21 146.055 154.429 142.868 151.829 140.687C151.304 140.231 150.785 140.131 150.235 139.581C149.779 139.256 149.217 139.063 148.667 139.031C152.248 128.383 150.848 117.809 147.198 108.267C142.774 96.5181 134.994 86.2695 129.101 79.2393C122.458 70.8716 115.953 62.9353 116.084 51.1868C116.309 33.2454 118.065 0.0874023 86.5629 0.0187988L86.5754 0ZM90.9685 28.3774L91.0997 28.3774C92.8558 28.3774 94.3806 28.9023 95.9491 30.0085C97.5426 31.1396 98.7175 32.7769 99.5923 34.4641C100.474 36.6138 100.936 38.2698 100.992 40.4819C100.992 40.3257 101.023 40.157 101.023 40.0007L101.023 40.8757C101.023 40.8069 100.992 40.7507 100.992 40.6819L100.961 40.4819C100.961 42.5068 100.542 44.5251 99.7299 46.375C99.3361 47.4185 98.755 48.3684 97.9363 49.1746C97.7114 49.0496 97.4802 48.9185 97.2177 48.8184C96.3428 48.4248 95.5616 48.2998 94.843 47.7185C94.2618 47.4873 93.6432 47.2937 93.0182 47.1624C93.4119 46.6812 94.2244 46.0562 94.5493 45.5063C94.9742 44.4626 95.1992 43.3254 95.2679 42.1567L95.2679 41.988C95.2992 40.8818 95.0992 39.7446 94.743 38.6697C94.3868 37.5637 93.9369 37.0012 93.2495 35.9014C92.5308 35.3452 91.8497 34.7952 90.9998 34.7952L90.8748 34.7952C90.0936 34.7952 89.4063 35.0203 88.6938 35.9014C87.9127 36.6763 87.3253 37.6262 87.0003 38.6697C86.5441 39.7446 86.2817 40.8757 86.2504 41.988L86.2504 42.1567C86.2504 42.9004 86.3192 43.6504 86.4066 44.4001C84.7819 43.8503 82.7634 43.2566 81.3323 42.7068C81.2635 42.1567 81.2011 41.6006 81.2011 41.0508L81.2011 40.8821C81.1448 38.676 81.5573 36.4888 82.4446 34.4766C83.1259 32.6519 84.3632 31.0833 86.0255 30.0459C87.4503 28.9773 89.175 28.3899 90.9685 28.3899L90.9685 28.3774ZM66.2969 28.8711L66.5906 28.8711C67.7654 28.8711 68.8403 29.2649 69.9151 29.9773C71.1462 31.052 72.1335 32.3831 72.7834 33.8455C73.5334 35.5139 73.9521 37.2012 74.0833 39.4133L74.0833 39.4446C74.1146 40.5508 74.1146 41.1445 74.0521 41.6631L74.0521 42.3442C73.7958 42.4131 73.5959 42.4756 73.3709 42.5381C72.1023 42.9941 71.0962 43.644 70.0776 44.2065C70.1776 43.4565 70.1776 42.7068 70.1088 41.988L70.1088 41.8569C70.0151 40.7571 69.7839 40.2009 69.4277 39.0884C69.1714 38.2449 68.6778 37.4636 68.0278 36.845C67.6342 36.4888 67.0842 36.2888 66.5343 36.3201L66.3344 36.3201C65.7532 36.3513 65.2595 36.645 64.8096 37.4263C64.2534 38.0449 63.9284 38.8259 63.8034 39.6758C63.5722 40.5508 63.5035 41.4944 63.6035 42.4443L63.6035 42.5381C63.7034 43.6816 63.8972 44.2378 64.2846 45.3376C64.6408 46.4436 65.1033 47.0061 65.6532 47.5562C65.7532 47.656 65.8219 47.7249 65.9469 47.7498C65.3657 48.2434 64.972 48.3435 64.4908 48.8933C64.1596 49.1245 63.8097 49.4182 63.3848 49.4871C62.5036 48.4373 61.7537 47.3062 61.1038 46.1313C60.2977 44.3752 59.8727 42.488 59.804 40.5632C59.6727 38.6824 59.9039 36.7888 60.4539 34.9954C60.9476 33.3706 61.7287 31.8394 62.8286 30.5396C63.9034 29.4336 64.9783 28.8835 66.3093 28.8835L66.2969 28.8711ZM77.7203 43.0942C80.4886 43.0942 83.8132 43.6128 87.8439 46.4124C90.2874 48.0811 92.2121 48.6621 96.6365 50.2869C98.7862 51.4307 100.017 52.5366 100.636 53.6428L100.636 52.5366C101.23 53.7678 101.292 55.1675 100.767 56.436C99.7236 59.042 96.4678 61.8103 91.8871 63.4663L91.8871 63.4976C89.6687 64.6038 87.7189 66.2661 85.438 67.3721C83.1321 68.4783 80.5199 69.8154 77.0079 69.5906C75.7393 69.6467 74.477 69.4595 73.2646 69.0344C72.3585 68.5532 71.4462 67.9907 70.5963 67.3784C68.9715 66.2722 67.5717 64.6101 65.4907 63.5039L65.4907 63.4727L65.4595 63.4727C62.1037 61.4229 60.3164 59.2046 59.729 57.5483C59.1791 55.3049 59.6978 53.6489 61.36 52.543C63.2098 51.4368 64.5096 50.2932 65.3595 49.7432C66.2344 49.1245 66.5656 48.8933 66.828 48.6685L66.8593 48.6685L66.8593 48.6372C68.2591 46.9436 70.465 44.7314 73.8583 43.6191C74.9894 43.3254 76.3018 43.1003 77.7266 43.1003L77.7203 43.0942ZM101.023 60.9231C104.023 72.7402 111.022 89.894 115.515 98.1929C117.89 102.649 122.639 112.022 124.689 123.39C125.989 123.358 127.42 123.546 128.957 123.939C134.356 110.01 124.433 95.0371 119.908 90.8689C118.052 89.2129 117.959 88.1006 118.865 88.1006C123.783 92.5249 130.219 101.193 132.563 111.047C133.638 115.503 133.906 120.265 132.763 124.977C133.313 125.202 133.869 125.496 134.456 125.527C143.049 129.995 146.236 133.344 144.705 138.35L144.705 137.994C144.224 137.969 143.699 137.994 143.211 137.994L143.08 137.994C144.355 134.094 141.555 131.095 134.2 127.776C126.582 124.458 120.496 124.977 119.452 131.651C119.383 132.007 119.358 132.201 119.327 132.794C118.734 132.988 118.152 133.213 117.571 133.313C113.99 135.563 112.066 138.912 110.966 143.212C109.891 147.667 109.566 152.842 109.272 158.803C109.072 161.603 107.841 165.796 106.598 170.058C94.0994 179.007 76.7517 182.882 62.0474 172.858C61.0975 171.233 59.9915 169.733 58.6917 168.402C58.073 167.359 57.2918 166.452 56.3857 165.634C57.9105 165.634 59.2166 165.378 60.2602 165.078C61.46 164.497 62.4099 163.484 62.8911 162.284C63.7722 160.066 62.8911 156.485 59.9915 152.579C57.1356 148.711 52.2488 144.312 45.1185 139.925C39.8505 136.606 36.8883 132.669 35.5198 128.301C34.1512 123.846 34.3449 119.253 35.3885 114.603C37.4382 105.686 42.6813 96.9993 46.0371 91.5564C46.912 91.0376 46.3308 92.7 42.6188 99.699C39.3255 105.948 33.1138 120.496 41.6002 131.788C41.9314 123.558 43.7499 115.422 47.0057 107.835C51.6863 97.1931 61.5225 78.6455 62.3036 63.9351C62.6973 64.26 64.0972 65.0786 64.7096 65.6287C66.5031 66.7346 67.8654 68.397 69.6277 69.5032C71.3837 71.1592 73.5959 72.3027 76.9204 72.3027C77.2454 72.334 77.5391 72.334 77.8265 72.334C81.2448 72.334 83.9195 71.2278 86.1254 70.1155C88.5314 68.9719 90.4936 67.3159 92.3058 66.7659L92.337 66.7659C96.2115 65.6599 99.3049 63.4102 101.03 60.9355L101.023 60.9231ZM119.252 135.563C119.577 140.568 122.121 145.943 126.607 147.042C131.488 148.149 138.55 144.274 141.512 140.668L143.268 140.6C145.899 140.531 148.086 140.668 150.323 142.818L150.354 142.849C152.079 144.505 152.898 147.274 153.61 150.142C154.329 153.492 154.879 156.647 157.028 159.022C161.059 163.415 162.396 166.571 162.334 168.527L162.334 168.527C162.203 170.702 160.765 171.808 158.166 173.47C152.923 176.826 143.618 179.395 137.693 186.562C132.544 192.711 126.27 196.061 120.727 196.486C115.196 196.942 110.41 194.83 107.61 189.006L107.579 188.974C105.823 185.65 106.573 180.444 108.035 174.907C109.504 169.34 111.616 163.684 111.909 159.091C112.203 153.135 112.528 147.961 113.503 143.949C114.509 140.075 116.078 137.306 118.877 135.782L119.233 135.582L119.252 135.563ZM29.1269 135.982L29.2269 135.982C29.683 135.982 30.108 136.013 30.5267 136.113C33.6512 136.569 36.4197 138.881 39.0568 142.362L46.637 156.229L46.6683 156.26C48.6868 160.685 52.9487 165.109 56.5607 169.902C60.179 174.876 62.9786 179.332 62.6536 182.981L62.6536 183.05C62.1599 189.231 58.6479 192.58 53.2798 193.824C47.9056 194.93 40.6129 193.824 33.3263 189.949C25.2587 185.494 15.6537 186.043 9.50458 184.931C6.44873 184.381 4.43024 183.238 3.48035 181.582C2.57422 179.926 2.53674 176.564 4.52399 171.327L4.52399 171.302C5.49884 168.502 4.79266 165.021 4.29901 161.959C3.84283 158.635 3.61786 156.06 4.65521 154.142C5.98627 151.342 7.97351 150.823 10.4106 149.686C12.8541 148.58 15.7537 148.03 18.0284 145.78L18.0596 145.78L18.0596 145.749C20.1781 143.543 21.7779 140.775 23.6276 138.781C25.1962 137.088 26.7834 135.982 29.1269 135.982L29.1269 135.982ZM88.7938 60.373C85.1755 62.0291 80.9136 64.8286 76.3892 64.8286C71.8649 64.8286 68.3153 62.6228 65.7469 60.9543C64.4471 59.8232 63.4035 58.7107 62.6224 58.1545C61.2538 57.0547 61.4163 55.3613 62.0037 55.3613C62.9098 55.4863 63.0786 56.4924 63.6597 57.0547C64.4783 57.6047 65.4532 58.7109 66.6531 59.8232C69.0965 61.4792 72.3523 63.7227 76.383 63.7227C80.4262 63.7227 85.1755 61.4792 88.0377 59.8232C89.6625 58.717 91.7434 57.0547 93.437 55.9487C94.7368 54.8052 94.6805 53.699 95.7429 53.699C96.8177 53.8303 96.0428 54.8052 94.543 56.4673C93.012 57.6108 90.6686 59.2671 88.7876 60.373L88.7938 60.373ZM79.7762 47.1624L79.7762 47.0061C79.7451 46.8374 79.87 46.6499 80.0325 46.5813C80.6136 46.2251 81.5261 46.3501 82.1822 46.6125C82.7009 46.6125 83.5132 47.1624 83.4508 47.7437C83.382 48.1372 82.7321 48.2998 82.3072 48.2998C81.8572 48.2998 81.5261 47.9436 81.1386 47.7185C80.7136 47.5874 79.895 47.6499 79.77 47.1624L79.7762 47.1624ZM75.1832 47.1624C75.0144 47.656 74.2333 47.5874 73.8146 47.7185C73.4209 47.9436 73.0959 48.2998 72.6398 48.2998C72.2148 48.2998 71.5336 48.1311 71.4962 47.7185C71.4399 47.1624 72.2148 46.6125 72.7397 46.6125C73.4209 46.3438 74.2645 46.2188 74.9144 46.5813C75.0457 46.6499 75.2144 46.8374 75.1457 47.0061L75.1457 47.1624L75.1832 47.1624Z" id="Shape" fill="#FFFFFF" fill-rule="evenodd" stroke="none" />
</svg>