<?xml version="1.0" encoding="utf-8"?>
<svg width="375.1387px" height="293.87067px" viewBox="0 0 375.1387 293.87067" version="1.1" xmlns:xlink="http://www.w3.org/1999/xlink" xmlns="http://www.w3.org/2000/svg">
  <defs>
    <filter filterUnits="userSpaceOnUse" color-interpolation-filters="sRGB" id="filter_1">
      <feFlood flood-opacity="0" result="BackgroundImageFix" />
      <feBlend mode="normal" in="SourceGraphic" in2="BackgroundImageFix" result="shape" />
      <feColorMatrix in="SourceAlpha" type="matrix" values="0 0 0 0 0 0 0 0 0 0 0 0 0 0 0 0 0 0 128 0" result="hardAlpha" />
      <feOffset dx="0" dy="0" />
      <feGaussianBlur stdDeviation="7.5" />
      <feComposite in2="hardAlpha" operator="arithmetic" k2="-1" k3="1" />
      <feColorMatrix type="matrix" values="0 0 0 0 0.46666667 0 0 0 0 0.11764706 0 0 0 0 1 0 0 0 1 0" />
      <feBlend mode="normal" in2="shape" result="effect0_innerShadow" />
    </filter>
    <filter filterUnits="userSpaceOnUse" color-interpolation-filters="sRGB" id="filter_2">
      <feFlood flood-opacity="0" result="BackgroundImageFix" />
      <feBlend mode="normal" in="SourceGraphic" in2="BackgroundImageFix" result="shape" />
      <feColorMatrix in="SourceAlpha" type="matrix" values="0 0 0 0 0 0 0 0 0 0 0 0 0 0 0 0 0 0 128 0" result="hardAlpha" />
      <feOffset dx="0" dy="0" />
      <feGaussianBlur stdDeviation="7.5" />
      <feComposite in2="hardAlpha" operator="arithmetic" k2="-1" k3="1" />
      <feColorMatrix type="matrix" values="0 0 0 0 0.1254902 0 0 0 0 0.4745098 0 0 0 0 1 0 0 0 1 0" />
      <feBlend mode="normal" in2="shape" result="effect0_innerShadow" />
    </filter>
    <path d="M369.627 0C375.694 0.00799561 374.957 5.189 374.957 11.2L374.957 59.491C374.957 62.291 375.534 66.534 374.63 68.735C373.597 71.25 370.495 73.305 368.648 75.152L355.053 88.752L345.809 97.996C344.709 99.096 343.062 100.633 340.588 99.954C336.705 98.889 337.107 94.903 337.107 89.947L337.107 65.801C337.144 54.4917 337.18 43.1807 337.216 31.868C337.985 29.185 343.261 25.168 345.264 23.168C350.264 18.168 355.268 13.1653 360.274 8.15999C363.24 5.19501 365.627 1.94801 369.627 0L369.627 0Z" id="path_1" />
    <path d="M294.594 74.937C300.982 74.883 300.032 80.355 300.032 86.573L300.032 255.046C299.515 257.508 297.107 259.059 295.572 260.593L284.261 271.904L268.816 287.348C266.868 289.297 264.66 292.738 261.747 293.548C210.78 293.583 159.807 293.62 108.828 293.657L43.8973 293.657C41.8653 293.657 39.4973 293.996 38.0253 293.439C35.2123 292.374 29.7073 285.666 27.3663 283.323L0.827265 256.788C-0.196722 255.204 0.0662783 252.204 0.0662783 249.61L0.0662783 158.788C0.0662783 156.802 -0.218725 154.182 0.393274 152.697C1.01248 151.279 2.26055 150.232 3.76528 149.87C6.45529 149.259 7.86529 151.035 9.09429 152.263L18.4483 161.616C22.9423 166.111 27.4376 170.607 31.9343 175.102C33.7043 176.873 36.7473 178.862 37.6983 181.302C38.5673 183.53 37.9163 189.332 37.9163 192.177L37.9163 245.362C37.9163 250.411 37.2933 254.93 41.5043 255.803L95.5593 255.803C101.405 255.803 110.876 257.332 112.308 252.758C112.345 236.807 112.381 220.856 112.417 204.903C112.417 199.703 111.162 190.432 114.266 188.153C118.732 184.875 122.822 191.053 124.923 193.153L143.305 211.426C144.918 213.039 147.257 217.312 151.026 216.426C153.926 215.745 156.299 212.026 158.206 210.117L174.628 193.803C176.66 191.773 179.05 187.931 182.242 187.277C189.242 185.843 187.789 196.508 187.789 202.396L187.789 252.426C188.831 257.356 197.964 255.798 203.776 255.798L244.562 255.798C248.397 255.798 258 256.657 260.333 255.146C263.286 253.231 262.182 243.046 262.182 238.07L262.182 114.526C262.182 112.081 261.706 108.633 262.398 106.587C263.198 104.237 268.858 99.587 270.773 97.669L285.238 83.204C288.223 80.22 290.669 77.011 294.594 74.937L294.594 74.937Z" id="path_2" />
    <path d="M149.178 107.889C153.136 107.871 154.198 110.082 156.138 112.022L166.687 122.568L180.5 136.381C182.243 138.124 185.264 140.02 185.83 142.798C186.597 146.57 180.885 150.57 179.086 152.369C172.525 158.932 165.963 165.494 159.4 172.055C157.319 174.138 153.88 178.877 150.7 179.455C147.222 180.083 143.186 174.442 141.455 172.711L120.247 151.503C118.462 149.717 113.439 146.319 114.373 142.583C115.128 139.575 120.893 135.195 123.073 133.012L139.387 116.698C142.487 113.601 145.149 110.053 149.178 107.889L149.178 107.889Z" id="path_3" />
    <path d="M369.749 112.345C371.636 112.192 373.446 113.118 374.425 114.738C375.489 116.613 374.97 120.793 374.97 123.547L374.97 276.792C374.97 281.849 375.452 286.369 371.27 287.233C367.978 287.915 366.545 285.444 365.18 284.079C361.156 280.056 357.132 276.032 353.108 272.007L342.231 261.132C340.753 259.653 338.277 258.032 337.446 256.02C336.539 253.828 337.119 249.566 337.119 246.775L337.119 225.892C337.156 198.669 337.192 171.442 337.228 144.211C338.003 141.524 343.27 137.518 345.276 135.511L360.395 120.394C363.348 117.44 365.667 114.2 369.749 112.345L369.749 112.345Z" id="path_4" />
    <path d="M318.197 276.361C319.18 276.328 320.155 276.553 321.024 277.013C322.672 278.02 329.866 285.155 330.704 286.802C331.689 289.018 330.959 291.622 328.964 293.002C327.696 293.783 311.822 294.202 309.496 293.547C308.106 293.13 306.96 292.141 306.342 290.827C305.837 289.395 305.956 287.817 306.669 286.476C309.715 283.396 312.76 280.315 315.805 277.232L318.197 276.361Z" id="path_5" />
  </defs>
  <g id="AlifLogo">
    <g id="Path">
      <use stroke="none" fill="#5B3398" xlink:href="#path_1" fill-rule="evenodd" filter="url(#filter_1)" />
    </g>
    <g id="Path">
      <use stroke="none" fill="#335B98" xlink:href="#path_2" fill-rule="evenodd" filter="url(#filter_2)" />
    </g>
    <g id="Path">
      <use stroke="none" fill="#5B3398" xlink:href="#path_3" fill-rule="evenodd" filter="url(#filter_1)" />
    </g>
    <g id="Path">
      <use stroke="none" fill="#335B98" xlink:href="#path_4" fill-rule="evenodd" filter="url(#filter_2)" />
    </g>
    <g id="Path">
      <use stroke="none" fill="#5B3398" xlink:href="#path_5" fill-rule="evenodd" filter="url(#filter_1)" />
    </g>
  </g>
</svg>