<?xml version="1.0" encoding="utf-8"?>
<svg width="240px" height="200px" viewBox="0 0 240 200" version="1.1" xmlns:xlink="http://www.w3.org/1999/xlink" xmlns="http://www.w3.org/2000/svg">
  <path d="M20 0.000732422C19.2651 -0.00830078 18.5316 0.0637207 17.8125 0.215576C7.80859 1.31958 0 9.70142 0 20.0007L0 180C0 190.305 7.81885 198.689 17.832 199.785C18.5447 199.935 19.2717 200.007 20 200L140 200L220 200C230.931 200 240 190.93 240 180L240 20.0007C240 9.07007 230.931 0.000732422 220 0.000732422L130 0.000732422L20 0.000732422L20 0.000732422ZM118.887 20.0005L220 20.0005L220 180L136.973 180C136.034 173.589 135.086 167.146 134.082 159.179C129.582 159.689 124.9 160 120 160C78.08 160 50.0763 138.83 48.9063 137.929C44.5262 134.56 43.7003 128.276 47.0703 123.906C50.4303 119.526 56.6942 118.701 61.0742 122.051C61.5242 122.381 85.3 140 120 140C124.12 140 128.036 139.727 131.816 139.297C130.746 128.527 130 118.15 130 110L106.855 110C103.095 110 99.9877 106.856 100.098 103.086C101.172 65.3445 110.821 37.3342 118.887 20.0005L118.887 20.0005ZM131.816 139.297C132.476 145.917 133.262 152.669 134.082 159.179C168.082 155.309 190.054 138.729 191.094 137.929C195.464 134.559 196.3 128.276 192.93 123.906C189.56 119.516 183.276 118.71 178.906 122.07C178.706 122.23 160.326 136.057 131.816 139.297L131.816 139.297ZM179.844 49.8638C174.328 49.95 169.924 54.4851 170 60.0005L170 70.0002C169.949 73.6067 171.844 76.9612 174.959 78.7791C178.074 80.5972 181.926 80.5972 185.041 78.7793C188.156 76.9612 190.051 73.6067 190 70.0002L190 60.0005C190.037 57.2974 188.978 54.6946 187.065 52.7849C185.152 50.8752 182.547 49.8215 179.844 49.8638L179.844 49.8638ZM60 50.0002C65.52 50.0002 70 54.4702 70 60.0002L70 70.0002C70 75.5303 65.52 80.0002 60 80.0002C54.48 80.0002 50 75.5303 50 70.0002L50 60.0002C50 54.4702 54.48 50.0002 60 50.0002L60 50.0002Z" id="Shape" fill="#FFFFFF" fill-rule="evenodd" stroke="none" />
</svg>