<?xml version="1.0" encoding="utf-8"?>
<svg width="202.5px" height="202.5px" viewBox="0 0 202.5 202.5" version="1.1" xmlns:xlink="http://www.w3.org/1999/xlink" xmlns="http://www.w3.org/2000/svg">
  <path d="M0 5.625C0 2.51999 2.52002 0 5.625 0L90 0C93.105 0 95.625 2.51999 95.625 5.625L95.625 90C95.625 93.105 93.105 95.625 90 95.625L5.625 95.625C2.52002 95.625 0 93.105 0 90L0 5.625ZM112.736 95.3887C109.626 95.3887 107.111 92.8744 107.111 89.7637L107.111 5.625C107.111 2.51999 109.631 0 112.736 0L196.875 0C199.98 0 202.5 2.51999 202.5 5.625L202.5 89.7637C202.5 92.8688 199.98 95.3887 196.875 95.3887L112.736 95.3887ZM0 112.5C0 109.395 2.52002 106.875 5.625 106.875L90 106.875C93.105 106.875 95.625 109.395 95.625 112.5L95.625 196.875C95.625 199.98 93.105 202.5 90 202.5L5.625 202.5C2.52002 202.5 0 199.98 0 196.875L0 112.5ZM112.5 202.5C109.395 202.5 106.875 199.98 106.875 196.875L106.875 112.5C106.875 109.395 109.395 106.875 112.5 106.875L196.875 106.875C199.98 106.875 202.5 109.395 202.5 112.5L202.5 196.875C202.5 199.98 199.98 202.5 196.875 202.5L112.5 202.5Z" id="Windows-11" fill="#FFFFFF" fill-rule="evenodd" stroke="none" />
</svg>