<?xml version="1.0" encoding="utf-8"?>
<svg width="30px" height="30px" viewBox="0 0 30 30" version="1.1" xmlns:xlink="http://www.w3.org/1999/xlink" xmlns="http://www.w3.org/2000/svg">
  <defs>
    <path d="M30 0L30 0L30 30L0 30L0 0L30 0Z" id="path_1" />
    <clipPath id="clip_1">
      <use xlink:href="#path_1" clip-rule="evenodd" fill-rule="evenodd" />
    </clipPath>
  </defs>
  <g id="Youtube">
    <path d="M30 0L30 0L30 30L0 30L0 0L30 0Z" id="Youtube" fill="none" stroke="none" />
    <path d="M26.9391 8.7C26.7 7.38047 25.5609 6.41953 24.2391 6.11953C22.2609 5.7 18.6 5.4 14.6391 5.4C10.6805 5.4 6.96094 5.7 4.98047 6.11953C3.66094 6.41953 2.51953 7.31953 2.28047 8.7C2.03906 10.2 1.8 12.3 1.8 15C1.8 17.7 2.03906 19.8 2.33906 21.3C2.58047 22.6195 3.71953 23.5805 5.03906 23.8805C7.13906 24.3 10.7391 24.6 14.7 24.6C18.6609 24.6 22.2609 24.3 24.3609 23.8805C25.6805 23.5805 26.8195 22.6805 27.0609 21.3C27.3 19.8 27.6 17.6391 27.6609 15C27.5391 12.3 27.2391 10.2 26.9391 8.7L26.9391 8.7ZM11.4 19.2L11.4 10.8L18.7195 15L11.4 19.2Z" id="Shape" fill="#FFFFFF" fill-opacity="0.8980392" fill-rule="evenodd" stroke="none" clip-path="url(#clip_1)" />
  </g>
</svg>