<?xml version="1.0" encoding="UTF-8"?>
<svg id="Layer_2" data-name="Layer 2" xmlns="http://www.w3.org/2000/svg" viewBox="0 0 274.33 597.27">
  <defs>
    <style>
      .cls-1 {
        fill: #020202;
        stroke-width: 0px;
      }
    </style>
  </defs>
  <g id="Layer_1-2" data-name="Layer 1">
    <path class="cls-1" d="M138.85,0c-5.57,4.59-10.79,9.55-16.66,13.57-9.47,6.49-19.17,12.67-29.11,18.42-23.54,13.62-37.13,32.93-36.06,60.97.18,4.63-2.27,6.21-6.45,7.15-17.84,3.98-29.58,18.76-29.75,37.03-.04,3.83.21,7.69-.18,11.49-.14,1.38-1.46,3.29-2.71,3.79C5.43,157.5-.03,166.78,0,180.12c.12,61,.05,121.99.05,182.99,0,17.83-.03,35.67.01,53.5.02,10.13,3.85,19.04,13.14,22.92,7.46,3.11,8.31,7.6,7.62,14.04-.12,1.15-.02,2.33-.02,3.5.09,18.55,11.73,33.46,29.85,37.47,4.99,1.1,6.09,3.63,6.48,8.2.67,7.92,1.29,16.01,3.48,23.59,4.61,15.96,16.49,26.23,29.99,34.78,16.61,10.52,35.23,18.37,46.65,36.16,6.09-9.77,14.11-16.45,23.12-22.01,7.37-4.55,14.79-9.02,22.24-13.43,22.72-13.45,35.66-32.56,34.69-59.74-.16-4.37,1.74-6.46,6.13-7.45,17.17-3.88,28.13-16.34,29.87-33.77.5-4.96.16-9.99.53-14.97.1-1.29,1.16-3.19,2.24-3.61,13.14-5.03,18.28-14.74,18.25-28.44-.15-78-.07-155.99-.07-233.99,0-1.33.02-2.67-.06-4-.55-8.96-4.24-16.98-12.36-20.31-8.16-3.35-9.17-8.5-8.3-15.66.16-1.31.06-2.67,0-4-.63-16.85-12.12-31.38-28.03-35.5-8.03-2.08-8.16-2.08-8.17-10.22-.02-22.57-9.33-40.22-28.01-52.8-6.63-4.46-13.51-8.55-20.38-12.64-11.93-7.11-23.6-14.51-30.1-24.75Z"/>
  </g>
</svg>